<svg xmlns="http://www.w3.org/2000/svg" width="512" height="512" viewBox="0 0 512 512">
  <rect width="512" height="512" rx="112" fill="#1F4E8C"/>
  <g fill="#fff" transform="translate(106,118.5) scale(2.5)">
    <rect x="8" y="6" width="104" height="6" rx="1"/>
    <path d="M 8 14 Q 8 22, 18 22 Q 28 22, 28 14 L 28 24 L 92 24 L 92 14 Q 92 22, 102 22 Q 112 22, 112 14 Z"/>
    <circle cx="18" cy="18" r="3.5"/>
    <circle cx="102" cy="18" r="3.5"/>
    <rect x="14" y="28" width="92" height="4" rx="1"/>
    <rect x="26" y="58" width="18" height="44" rx="2"/>
    <rect x="52" y="48" width="18" height="54" rx="2"/>
    <rect x="78" y="38" width="18" height="64" rx="2"/>
  </g>
</svg>
